<?xml version="1.0" encoding="UTF-8" standalone="no"?>
<!-- Generator: Adobe Illustrator 16.0.0, SVG Export Plug-In . SVG Version: 6.00 Build 0)  -->

<svg
   xmlns:dc="http://purl.org/dc/elements/1.1/"
   xmlns:cc="http://creativecommons.org/ns#"
   xmlns:rdf="http://www.w3.org/1999/02/22-rdf-syntax-ns#"
   xmlns:svg="http://www.w3.org/2000/svg"
   xmlns="http://www.w3.org/2000/svg"
   xmlns:sodipodi="http://sodipodi.sourceforge.net/DTD/sodipodi-0.dtd"
   xmlns:inkscape="http://www.inkscape.org/namespaces/inkscape"
   version="1.1"
   id="Capa_1"
   x="0px"
   y="0px"
   width="757.671px"
   height="757.671px"
   viewBox="0 0 757.671 757.671"
   style="enable-background:new 0 0 757.671 757.671;"
   xml:space="preserve"
   inkscape:version="0.91 r13725"
   sodipodi:docname="dla trenera.svg"><metadata
     id="metadata44"><rdf:RDF><cc:Work
         rdf:about=""><dc:format>image/svg+xml</dc:format><dc:type
           rdf:resource="http://purl.org/dc/dcmitype/StillImage" /><dc:title></dc:title></cc:Work></rdf:RDF></metadata><defs
     id="defs42" /><sodipodi:namedview
     pagecolor="#ffffff"
     bordercolor="#666666"
     borderopacity="1"
     objecttolerance="10"
     gridtolerance="10"
     guidetolerance="10"
     inkscape:pageopacity="0"
     inkscape:pageshadow="2"
     inkscape:window-width="711"
     inkscape:window-height="480"
     id="namedview40"
     showgrid="false"
     inkscape:zoom="0.31148083"
     inkscape:cx="-117.18217"
     inkscape:cy="378.83551"
     inkscape:window-x="0"
     inkscape:window-y="24"
     inkscape:window-maximized="0"
     inkscape:current-layer="Capa_1" /><g
     id="g3"
     style="fill:#96928b;fill-opacity:1"><g
       id="Shape_13"
       style="fill:#96928b;fill-opacity:1"><g
         id="g6"
         style="fill:#96928b;fill-opacity:1"><path
           d="M583.68,495.079H451.693v-50.213c91.013-32.567,153.67-119.792,153.67-215.774C605.363,102.772,503.086,0,377.378,0     c-102.933,0-189.837,70.104-217.1,165.604c-0.044,0.087-0.131,0.146-0.161,0.233c-0.51,1.151-0.597,2.346-0.787,3.526     c-5.1,19.074-8.058,39.037-8.058,59.729c0,95.822,63.094,183.061,154.719,215.789v50.198h-133.27     c-53.215,0-99.887,45.623-99.887,97.629v150.377c0,8.058,6.528,14.586,14.571,14.586h582.857c8.043,0,14.571-6.528,14.571-14.586     V592.708C684.835,540.702,637.566,495.079,583.68,495.079z M377.378,29.172c78.481,0,146.282,46.06,178.602,112.608     c-0.524,0.117-1.049,0.015-1.559,0.189c-0.933,0.32-95.298,31.693-178.763,50.33c-64.202,14.338-152.257-16.349-184.139-28.851     C218.375,85.418,291.436,29.172,377.378,29.172z M655.693,728.499H101.979V592.708c0-36.473,33.062-68.457,70.744-68.457H320.55     c8.043,0,14.571-6.528,14.571-14.586v-75.319c0-6.412-4.196-12.08-10.316-13.945c-85.024-25.966-144.403-104.637-144.403-191.293     c0-12.736,1.297-25.15,3.555-37.215c29.522,11.467,93.752,33.325,154.545,33.325c14.892,0,29.594-1.326,43.51-4.43     c84.937-18.958,180.671-50.811,181.633-51.131c1.137-0.379,2.011-1.107,2.987-1.705c6.178,19.293,9.603,39.824,9.603,61.171     c0,86.846-58.941,165.503-143.354,191.294c-6.134,1.851-10.331,7.519-10.331,13.931v75.319c0,8.059,6.528,14.586,14.572,14.586     H583.68c37.682,0,72.013,32.626,72.013,68.457V728.499z"
           id="path8"
           style="fill:#96928b;fill-opacity:1" /></g></g></g><g
     id="g10" /><g
     id="g12" /><g
     id="g14" /><g
     id="g16" /><g
     id="g18" /><g
     id="g20" /><g
     id="g22" /><g
     id="g24" /><g
     id="g26" /><g
     id="g28" /><g
     id="g30" /><g
     id="g32" /><g
     id="g34" /><g
     id="g36" /><g
     id="g38" /></svg>