<?xml version="1.0" encoding="UTF-8" standalone="no"?>
<!-- Generator: Adobe Illustrator 19.0.0, SVG Export Plug-In . SVG Version: 6.00 Build 0)  -->

<svg
   xmlns:dc="http://purl.org/dc/elements/1.1/"
   xmlns:cc="http://creativecommons.org/ns#"
   xmlns:rdf="http://www.w3.org/1999/02/22-rdf-syntax-ns#"
   xmlns:svg="http://www.w3.org/2000/svg"
   xmlns="http://www.w3.org/2000/svg"
   xmlns:sodipodi="http://sodipodi.sourceforge.net/DTD/sodipodi-0.dtd"
   xmlns:inkscape="http://www.inkscape.org/namespaces/inkscape"
   version="1.1"
   id="Capa_1"
   x="0px"
   y="0px"
   viewBox="0 0 468.74 468.74"
   style="enable-background:new 0 0 468.74 468.74;"
   xml:space="preserve"
   inkscape:version="0.91 r13725"
   sodipodi:docname="lekcje.svg"><metadata
     id="metadata67"><rdf:RDF><cc:Work
         rdf:about=""><dc:format>image/svg+xml</dc:format><dc:type
           rdf:resource="http://purl.org/dc/dcmitype/StillImage" /></cc:Work></rdf:RDF></metadata><defs
     id="defs65" /><sodipodi:namedview
     pagecolor="#ffffff"
     bordercolor="#666666"
     borderopacity="1"
     objecttolerance="10"
     gridtolerance="10"
     guidetolerance="10"
     inkscape:pageopacity="0"
     inkscape:pageshadow="2"
     inkscape:window-width="711"
     inkscape:window-height="480"
     id="namedview63"
     showgrid="false"
     inkscape:zoom="0.50347742"
     inkscape:cx="234.37"
     inkscape:cy="234.37"
     inkscape:window-x="0"
     inkscape:window-y="24"
     inkscape:window-maximized="0"
     inkscape:current-layer="Capa_1" /><g
     id="g3"
     style="fill:#96928b;fill-opacity:1"><path
       d="M461.24,59.245h-21.87v-22.5c0-4.142-3.357-7.5-7.5-7.5H263.104c-10.817,0-21.035,4.134-28.733,11.373   c-7.698-7.238-17.917-11.373-28.732-11.373H36.87c-4.143,0-7.5,3.358-7.5,7.5v22.5H7.5c-4.143,0-7.5,3.358-7.5,7.5v263.346   c0,20.678,16.822,37.5,37.5,37.5h144.37v56.904h-32.5c-4.143,0-7.5,3.358-7.5,7.5s3.357,7.5,7.5,7.5h170c4.143,0,7.5-3.358,7.5-7.5   s-3.357-7.5-7.5-7.5h-32.5v-34.404c0-4.142-3.357-7.5-7.5-7.5s-7.5,3.358-7.5,7.5v34.404h-75v-56.904h234.37   c20.678,0,37.5-16.822,37.5-37.5V66.745C468.74,62.603,465.383,59.245,461.24,59.245z M453.74,74.245v213.14h-14.37V74.245H453.74z    M44.37,44.245h161.268c9.056,0,17.461,4.514,22.486,12.075c1.39,2.092,3.734,3.349,6.246,3.349s4.856-1.257,6.247-3.349   c5.023-7.561,13.43-12.074,22.486-12.074H424.37v243.14h-380V44.245z M29.37,74.245v213.14H15V74.245H29.37z M431.24,352.591H37.5   c-12.406,0-22.5-10.093-22.5-22.5v-27.707h438.74v27.707C453.74,342.498,443.646,352.591,431.24,352.591z"
       id="path5"
       style="fill:#96928b;fill-opacity:1" /><path
       d="M234.37,272.385c4.143,0,7.5-3.358,7.5-7.5V82.168c0-4.142-3.357-7.5-7.5-7.5s-7.5,3.358-7.5,7.5v182.716   C226.87,269.027,230.228,272.385,234.37,272.385z"
       id="path7"
       style="fill:#96928b;fill-opacity:1" /><path
       d="M77.5,84.245h114.965c4.143,0,7.5-3.358,7.5-7.5s-3.357-7.5-7.5-7.5H77.5c-4.143,0-7.5,3.358-7.5,7.5   S73.357,84.245,77.5,84.245z"
       id="path9"
       style="fill:#96928b;fill-opacity:1" /><path
       d="M77.5,119.873h114.965c4.143,0,7.5-3.358,7.5-7.5s-3.357-7.5-7.5-7.5H77.5c-4.143,0-7.5,3.358-7.5,7.5   S73.357,119.873,77.5,119.873z"
       id="path11"
       style="fill:#96928b;fill-opacity:1" /><path
       d="M77.5,155.501h57.482c4.143,0,7.5-3.358,7.5-7.5s-3.357-7.5-7.5-7.5H77.5c-4.143,0-7.5,3.358-7.5,7.5   S73.357,155.501,77.5,155.501z"
       id="path13"
       style="fill:#96928b;fill-opacity:1" /><path
       d="M77.5,191.129h114.965c4.143,0,7.5-3.358,7.5-7.5s-3.357-7.5-7.5-7.5H77.5c-4.143,0-7.5,3.358-7.5,7.5   S73.357,191.129,77.5,191.129z"
       id="path15"
       style="fill:#96928b;fill-opacity:1" /><path
       d="M77.5,226.757h114.965c4.143,0,7.5-3.358,7.5-7.5s-3.357-7.5-7.5-7.5H77.5c-4.143,0-7.5,3.358-7.5,7.5   S73.357,226.757,77.5,226.757z"
       id="path17"
       style="fill:#96928b;fill-opacity:1" /><path
       d="M77.5,262.385h57.482c4.143,0,7.5-3.358,7.5-7.5s-3.357-7.5-7.5-7.5H77.5c-4.143,0-7.5,3.358-7.5,7.5   S73.357,262.385,77.5,262.385z"
       id="path19"
       style="fill:#96928b;fill-opacity:1" /><path
       d="M276.275,84.245h114.964c4.143,0,7.5-3.358,7.5-7.5s-3.357-7.5-7.5-7.5H276.275c-4.143,0-7.5,3.358-7.5,7.5   S272.133,84.245,276.275,84.245z"
       id="path21"
       style="fill:#96928b;fill-opacity:1" /><path
       d="M276.275,119.873h114.964c4.143,0,7.5-3.358,7.5-7.5s-3.357-7.5-7.5-7.5H276.275c-4.143,0-7.5,3.358-7.5,7.5   S272.133,119.873,276.275,119.873z"
       id="path23"
       style="fill:#96928b;fill-opacity:1" /><path
       d="M276.275,155.501h57.481c4.143,0,7.5-3.358,7.5-7.5s-3.357-7.5-7.5-7.5h-57.481c-4.143,0-7.5,3.358-7.5,7.5   S272.133,155.501,276.275,155.501z"
       id="path25"
       style="fill:#96928b;fill-opacity:1" /><path
       d="M276.275,191.129h114.964c4.143,0,7.5-3.358,7.5-7.5s-3.357-7.5-7.5-7.5H276.275c-4.143,0-7.5,3.358-7.5,7.5   S272.133,191.129,276.275,191.129z"
       id="path27"
       style="fill:#96928b;fill-opacity:1" /><path
       d="M276.275,226.757h114.964c4.143,0,7.5-3.358,7.5-7.5s-3.357-7.5-7.5-7.5H276.275c-4.143,0-7.5,3.358-7.5,7.5   S272.133,226.757,276.275,226.757z"
       id="path29"
       style="fill:#96928b;fill-opacity:1" /><path
       d="M276.275,262.385h57.481c4.143,0,7.5-3.358,7.5-7.5s-3.357-7.5-7.5-7.5h-57.481c-4.143,0-7.5,3.358-7.5,7.5   S272.133,262.385,276.275,262.385z"
       id="path31"
       style="fill:#96928b;fill-opacity:1" /></g><g
     id="g33" /><g
     id="g35" /><g
     id="g37" /><g
     id="g39" /><g
     id="g41" /><g
     id="g43" /><g
     id="g45" /><g
     id="g47" /><g
     id="g49" /><g
     id="g51" /><g
     id="g53" /><g
     id="g55" /><g
     id="g57" /><g
     id="g59" /><g
     id="g61" /></svg>